<svg width="46" height="47" viewBox="0 0 46 47" fill="none" xmlns="http://www.w3.org/2000/svg">
<path fill-rule="evenodd" clip-rule="evenodd" d="M22.9747 46.5235C35.6205 46.5235 45.872 36.272 45.872 23.6261C45.872 10.9803 35.6205 0.728821 22.9747 0.728821C10.3289 0.728821 0.0773926 10.9803 0.0773926 23.6261C0.0773926 36.272 10.3289 46.5235 22.9747 46.5235Z" fill="#F04037" fill-opacity="0.1"/>
<path d="M24.2003 15.2593L29.4213 17.5778C30.9257 18.2415 30.9257 19.3388 29.4213 20.0025L24.2003 22.321C23.6074 22.5864 22.634 22.5864 22.0411 22.321L16.82 20.0025C15.3157 19.3388 15.3157 18.2415 16.82 17.5778L22.0411 15.2593C22.634 14.9938 23.6074 14.9938 24.2003 15.2593Z" stroke="#F04037" stroke-width="1.32738" stroke-linecap="round" stroke-linejoin="round"/>
<path d="M15.3423 22.4094C15.3423 23.1527 15.8998 24.0111 16.5812 24.3119L22.5898 26.9844C23.0499 27.1879 23.572 27.1879 24.0234 26.9844L30.032 24.3119C30.7134 24.0111 31.2709 23.1527 31.2709 22.4094" stroke="#F04037" stroke-width="1.32738" stroke-linecap="round" stroke-linejoin="round"/>
<path d="M15.3423 26.834C15.3423 27.657 15.829 28.4004 16.5812 28.7366L22.5898 31.4091C23.0499 31.6126 23.572 31.6126 24.0234 31.4091L30.032 28.7366C30.7841 28.4004 31.2709 27.657 31.2709 26.834" stroke="#F04037" stroke-width="1.32738" stroke-linecap="round" stroke-linejoin="round"/>
</svg>
