<svg width="46" height="47" viewBox="0 0 46 47" fill="none" xmlns="http://www.w3.org/2000/svg">
<path fill-rule="evenodd" clip-rule="evenodd" d="M22.9747 46.5592C35.6205 46.5592 45.872 36.3077 45.872 23.6618C45.872 11.016 35.6205 0.764526 22.9747 0.764526C10.3289 0.764526 0.0773926 11.016 0.0773926 23.6618C0.0773926 36.3077 10.3289 46.5592 22.9747 46.5592Z" fill="#5454D4" fill-opacity="0.1"/>
<path d="M18.6696 32.1791H27.9435C30.3859 32.1791 31.3593 30.6836 31.4744 28.8607L31.9345 21.5512C32.0584 19.6398 30.5363 18.0204 28.6161 18.0204C28.0763 18.0204 27.5807 17.7107 27.3329 17.2328L26.6958 15.9497C26.2887 15.1444 25.2268 14.4807 24.3242 14.4807H22.2977C21.3863 14.4807 20.3244 15.1444 19.9173 15.9497L19.2802 17.2328C19.0324 17.7107 18.5368 18.0204 17.997 18.0204C16.0767 18.0204 14.5547 19.6398 14.6786 21.5512L15.1387 28.8607C15.2449 30.6836 16.2272 32.1791 18.6696 32.1791Z" stroke="#5454D4" stroke-width="1.32738" stroke-linecap="round" stroke-linejoin="round"/>
<path d="M21.9791 19.7903H24.6339" stroke="#5454D4" stroke-width="1.32738" stroke-linecap="round" stroke-linejoin="round"/>
<path d="M23.3065 28.6396C24.8905 28.6396 26.1825 27.3476 26.1825 25.7636C26.1825 24.1796 24.8905 22.8876 23.3065 22.8876C21.7225 22.8876 20.4305 24.1796 20.4305 25.7636C20.4305 27.3476 21.7225 28.6396 23.3065 28.6396Z" stroke="#5454D4" stroke-width="1.32738" stroke-linecap="round" stroke-linejoin="round"/>
</svg>
