<svg width="47" height="47" viewBox="0 0 47 47" fill="none" xmlns="http://www.w3.org/2000/svg">
<path fill-rule="evenodd" clip-rule="evenodd" d="M23.1889 46.5235C35.8348 46.5235 46.0863 36.272 46.0863 23.6261C46.0863 10.9803 35.8348 0.728821 23.1889 0.728821C10.5431 0.728821 0.291626 10.9803 0.291626 23.6261C0.291626 36.272 10.5431 46.5235 23.1889 46.5235Z" fill="#FEDC5A" fill-opacity="0.1"/>
<path d="M20.866 24.1793C20.282 24.4713 19.7953 24.9049 19.4324 25.4447C19.2289 25.7544 19.2289 26.1438 19.4324 26.4535C19.7953 26.9933 20.282 27.4269 20.866 27.7189" stroke="#FEDC5A" stroke-width="1.32738" stroke-linecap="round" stroke-linejoin="round"/>
<path d="M26.3613 24.1793C26.9454 24.4713 27.4321 24.9049 27.7949 25.4447C27.9984 25.7544 27.9984 26.1438 27.7949 26.4535C27.4321 26.9933 26.9454 27.4269 26.3613 27.7189" stroke="#FEDC5A" stroke-width="1.32738" stroke-linecap="round" stroke-linejoin="round"/>
<path d="M20.8661 32.1435H26.1756C30.6002 32.1435 32.37 30.3736 32.37 25.949V20.6395C32.37 16.2149 30.6002 14.4451 26.1756 14.4451H20.8661C16.4415 14.4451 14.6716 16.2149 14.6716 20.6395V25.949C14.6716 30.3736 16.4415 32.1435 20.8661 32.1435Z" stroke="#FEDC5A" stroke-width="1.32738" stroke-linecap="round" stroke-linejoin="round"/>
<path d="M14.8751 19.7634L31.8833 19.7546" stroke="#FEDC5A" stroke-width="1.32738" stroke-linecap="round" stroke-linejoin="round"/>
</svg>
