<svg width="47" height="47" viewBox="0 0 47 47" fill="none" xmlns="http://www.w3.org/2000/svg">
<path fill-rule="evenodd" clip-rule="evenodd" d="M23.7604 46.5235C36.4062 46.5235 46.6577 36.272 46.6577 23.6261C46.6577 10.9803 36.4062 0.728821 23.7604 0.728821C11.1145 0.728821 0.863037 10.9803 0.863037 23.6261C0.863037 36.272 11.1145 46.5235 23.7604 46.5235Z" fill="#5454D4" fill-opacity="0.1"/>
<path d="M21.4374 24.1793C20.8534 24.4713 20.3667 24.9049 20.0038 25.4447C19.8003 25.7544 19.8003 26.1438 20.0038 26.4535C20.3667 26.9933 20.8534 27.4269 21.4374 27.7189" stroke="#5454D4" stroke-width="1.32738" stroke-linecap="round" stroke-linejoin="round"/>
<path d="M26.9329 24.1793C27.5169 24.4713 28.0036 24.9049 28.3664 25.4447C28.57 25.7544 28.57 26.1438 28.3664 26.4535C28.0036 26.9933 27.5169 27.4269 26.9329 27.7189" stroke="#5454D4" stroke-width="1.32738" stroke-linecap="round" stroke-linejoin="round"/>
<path d="M21.4374 32.1435H26.7469C31.1715 32.1435 32.9413 30.3736 32.9413 25.949V20.6395C32.9413 16.2149 31.1715 14.4451 26.7469 14.4451H21.4374C17.0128 14.4451 15.2429 16.2149 15.2429 20.6395V25.949C15.2429 30.3736 17.0128 32.1435 21.4374 32.1435Z" stroke="#5454D4" stroke-width="1.32738" stroke-linecap="round" stroke-linejoin="round"/>
<path d="M15.4465 19.7634L32.4547 19.7546" stroke="#5454D4" stroke-width="1.32738" stroke-linecap="round" stroke-linejoin="round"/>
</svg>
