<svg width="47" height="47" viewBox="0 0 47 47" fill="none" xmlns="http://www.w3.org/2000/svg">
<path fill-rule="evenodd" clip-rule="evenodd" d="M23.1889 46.5592C35.8348 46.5592 46.0863 36.3077 46.0863 23.6618C46.0863 11.016 35.8348 0.764526 23.1889 0.764526C10.5431 0.764526 0.291626 11.016 0.291626 23.6618C0.291626 36.3077 10.5431 46.5592 23.1889 46.5592Z" fill="#F04037" fill-opacity="0.1"/>
<path d="M32.37 25.9847V20.6752C32.37 16.2506 30.6002 14.4807 26.1756 14.4807H20.8661C16.4415 14.4807 14.6716 16.2506 14.6716 20.6752V25.9847C14.6716 30.4093 16.4415 32.1791 20.8661 32.1791H26.1756C30.6002 32.1791 32.37 30.4093 32.37 25.9847Z" stroke="#F04037" stroke-width="1.32738" stroke-linecap="round" stroke-linejoin="round"/>
<path d="M15.1318 19.0028H31.9099" stroke="#F04037" stroke-width="1.32738" stroke-linecap="round" stroke-linejoin="round"/>
<path d="M20.4413 14.5782V18.879" stroke="#F04037" stroke-width="1.32738" stroke-linecap="round" stroke-linejoin="round"/>
<path d="M26.6002 14.5782V18.4807" stroke="#F04037" stroke-width="1.32738" stroke-linecap="round" stroke-linejoin="round"/>
<path d="M21.5297 25.4981V24.4362C21.5297 23.0734 22.4942 22.5159 23.6712 23.1973L24.5915 23.7283L25.5118 24.2592C26.6887 24.9406 26.6887 26.0556 25.5118 26.737L24.5915 27.2679L23.6712 27.7989C22.4942 28.4803 21.5297 27.9228 21.5297 26.56V25.4981V25.4981Z" stroke="#F04037" stroke-width="1.32738" stroke-miterlimit="10" stroke-linecap="round" stroke-linejoin="round"/>
</svg>
